# xmcd
#
# Track frame offsets:
# 150
# 14622
# 29931
# 48966
# 62790
# 80448
# 99348
# 118491
# 133476
# 141414
# 146733
# 164418
# 175731
# 202164
# 218499
# 234591
# 246876
# 265047
# 287673
# 298770
# 312567
# 325770
#
# Disc length: 4554 seconds
#
#
# Revision: 2
# Processed by: cddbd v1.5.1PL0 Copyright (c) Steve Scherf et al.
# Submitted via: FreeRIP 2.942 
#
DISCID=6511c816
DTITLE=Kaprixo - Ao vivo em Ubaítaba
DYEAR=2005
DGENRE=ARROCHA
TTITLE0=Bum, bum
TTITLE1=Sou seu
TTITLE2=Vem meu amor
TTITLE3=Noite de seresta
TTITLE4=Doce amor
TTITLE5=Como uma virgem
TTITLE6=Não chore mas meu bem
TTITLE7=Chora guitarra
TTITLE8=Sminofai
TTITLE9=Cachorro dentro
TTITLE10=Tapinha na bundinha
TTITLE11=Estou amando
TTITLE12=De frente, de costas
TTITLE13=Arrependido
TTITLE14=A prova de fogo
TTITLE15=Logo ao acordar
TTITLE16=Sonho lindo
TTITLE17=Eu não vou te deixar
TTITLE18=Venha arrochar
TTITLE19=Encosta meu
TTITLE20=Um verso
TTITLE21=Como esquecer seu amor
EXTD=
EXTT0=
EXTT1=
EXTT2=
EXTT3=
EXTT4=
EXTT5=
EXTT6=
EXTT7=
EXTT8=
EXTT9=
EXTT10=
EXTT11=
EXTT12=
EXTT13=
EXTT14=
EXTT15=
EXTT16=
EXTT17=
EXTT18=
EXTT19=
EXTT20=
EXTT21=
PLAYORDER=
